<?xml version="1.0" standalone="no"?>
<!DOCTYPE svg PUBLIC "-//W3C//DTD SVG 20010904//EN"
 "http://www.w3.org/TR/2001/REC-SVG-20010904/DTD/svg10.dtd">
<svg version="1.0" xmlns="http://www.w3.org/2000/svg"
 width="240.000000pt" height="240.000000pt" viewBox="0 0 240.000000 240.000000"
 preserveAspectRatio="xMidYMid meet">
<metadata>
Created by potrace 1.15, written by Peter Selinger 2001-2017
</metadata>
<g transform="translate(0.000000,240.000000) scale(0.100000,-0.100000)"
fill="blue" stroke="none">
<path d="M1111 1589 c-106 -21 -183 -86 -222 -188 -12 -31 -21 -76 -21 -99 0
-30 -7 -55 -23 -79 -37 -53 -40 -74 -17 -92 23 -18 45 -109 36 -146 -4 -16 1
-30 16 -45 19 -19 28 -21 80 -15 l58 7 8 -49 c8 -39 13 -49 32 -51 18 -3 21
-6 12 -17 -6 -7 -10 -33 -8 -57 3 -43 3 -43 46 -46 24 -2 42 1 42 7 0 6 -8 10
-17 9 -49 -4 -54 1 -51 40 2 30 7 38 26 40 15 2 22 -2 22 -12 0 -9 7 -16 15
-16 18 0 18 5 5 31 -10 17 -7 19 36 19 39 0 45 -2 35 -14 -7 -8 -11 -34 -9
-58 l3 -43 50 -3 c36 -1 45 1 34 8 -9 5 -26 8 -38 5 -16 -3 -21 1 -21 16 0 15
7 19 35 19 30 0 35 3 35 24 0 14 -5 28 -12 32 -8 5 -2 11 17 15 39 11 45 5 45
-46 0 -51 8 -75 24 -75 13 0 9 170 -5 184 -18 19 -10 147 12 193 11 24 25 43
30 43 6 0 23 28 39 63 57 118 34 246 -58 329 -23 21 -60 42 -84 48 -24 6 -59
15 -78 21 -41 10 -68 10 -129 -2z"/>
</g>
</svg>
